<svg xmlns="http://www.w3.org/2000/svg" xmlns:xlink="http://www.w3.org/1999/xlink" xmlns:lucid="lucid" width="1857" height="1043"><g transform="translate(4035 5173)" lucid:page-tab-id="0_0"><path d="M-4500-5500h2500v2500h-2500z" fill="#fff"/><path d="M-3446.24-4585.1a6 6 0 0 1 6-6h268a6 6 0 0 1 6 6v168a6 6 0 0 1-6 6h-268a6 6 0 0 1-6-6z" stroke="#2db539" stroke-width="3" fill-opacity="0"/><path d="M-3426.24-4855.16a6 6 0 0 1 6-6h228a6 6 0 0 1 6 6v121.5a6 6 0 0 1-6 6h-228a6 6 0 0 1-6-6z" stroke="#000" stroke-opacity="0" stroke-width="3" fill="#004faf"/><use xlink:href="#a" transform="matrix(1,0,0,1,-3421.2386893673156,-4856.1558599257405) translate(29.2777777777778 43.125)"/><use xlink:href="#b" transform="matrix(1,0,0,1,-3421.2386893673156,-4856.1558599257405) translate(139 43.125)"/><use xlink:href="#c" transform="matrix(1,0,0,1,-3421.2386893673156,-4856.1558599257405) translate(94.33641975308643 60.013888888888886)"/><use xlink:href="#d" transform="matrix(1,0,0,1,-3421.2386893673156,-4856.1558599257405) translate(115 73.34722222222221)"/><use xlink:href="#e" transform="matrix(1,0,0,1,-3421.2386893673156,-4856.1558599257405) translate(16.92592592592598 88.45833333333331)"/><use xlink:href="#f" transform="matrix(1,0,0,1,-3421.2386893673156,-4856.1558599257405) translate(28.77777777777783 88.45833333333331)"/><use xlink:href="#g" transform="matrix(1,0,0,1,-3421.2386893673156,-4856.1558599257405) translate(73.18518518518522 88.45833333333331)"/><use xlink:href="#h" transform="matrix(1,0,0,1,-3421.2386893673156,-4856.1558599257405) translate(101.29629629629632 88.45833333333331)"/><use xlink:href="#i" transform="matrix(1,0,0,1,-3421.2386893673156,-4856.1558599257405) translate(114.59259259259261 88.45833333333331)"/><use xlink:href="#j" transform="matrix(1,0,0,1,-3421.2386893673156,-4856.1558599257405) translate(133.11111111111111 88.45833333333331)"/><use xlink:href="#k" transform="matrix(1,0,0,1,-3421.2386893673156,-4856.1558599257405) translate(155.33333333333331 88.45833333333331)"/><path d="M-3026.24-4554.92a6 6 0 0 1 6-6h228a6 6 0 0 1 6 6v108a6 6 0 0 1-6 6h-228a6 6 0 0 1-6-6z" stroke="#000" stroke-opacity="0" stroke-width="3" fill="#dfe3e8"/><use xlink:href="#l" transform="matrix(1,0,0,1,-3021.2386893673156,-4555.9240836192785) translate(38.44444444444444 19.4375)"/><use xlink:href="#m" transform="matrix(1,0,0,1,-3021.2386893673156,-4555.9240836192785) translate(150.55555555555554 19.4375)"/><use xlink:href="#n" transform="matrix(1,0,0,1,-3021.2386893673156,-4555.9240836192785) translate(75.08333333333334 43.43749999999999)"/><use xlink:href="#o" transform="matrix(1,0,0,1,-3021.2386893673156,-4555.9240836192785) translate(53.348765432098794 60.32638888888888)"/><use xlink:href="#p" transform="matrix(1,0,0,1,-3021.2386893673156,-4555.9240836192785) translate(100.20061728395063 60.32638888888888)"/><use xlink:href="#q" transform="matrix(1,0,0,1,-3021.2386893673156,-4555.9240836192785) translate(124.89197530864197 60.32638888888888)"/><use xlink:href="#r" transform="matrix(1,0,0,1,-3021.2386893673156,-4555.9240836192785) translate(115 73.6597222222222)"/><use xlink:href="#s" transform="matrix(1,0,0,1,-3021.2386893673156,-4555.9240836192785) translate(29.925925925925952 88.7708333333333)"/><use xlink:href="#t" transform="matrix(1,0,0,1,-3021.2386893673156,-4555.9240836192785) translate(33.629629629629655 88.7708333333333)"/><use xlink:href="#u" transform="matrix(1,0,0,1,-3021.2386893673156,-4555.9240836192785) translate(60.259259259259274 88.7708333333333)"/><use xlink:href="#v" transform="matrix(1,0,0,1,-3021.2386893673156,-4555.9240836192785) translate(112 88.7708333333333)"/><use xlink:href="#w" transform="matrix(1,0,0,1,-3021.2386893673156,-4555.9240836192785) translate(126.81481481481481 88.7708333333333)"/><use xlink:href="#x" transform="matrix(1,0,0,1,-3021.2386893673156,-4555.9240836192785) translate(149.037037037037 88.7708333333333)"/><use xlink:href="#y" transform="matrix(1,0,0,1,-3021.2386893673156,-4555.9240836192785) translate(174.14814814814812 88.7708333333333)"/><use xlink:href="#z" transform="matrix(1,0,0,1,-3021.2386893673156,-4555.9240836192785) translate(17.608024691358096 102.99305555555551)"/><use xlink:href="#A" transform="matrix(1,0,0,1,-3021.2386893673156,-4555.9240836192785) translate(66.86728395061732 102.99305555555551)"/><use xlink:href="#B" transform="matrix(1,0,0,1,-3021.2386893673156,-4555.9240836192785) translate(85.38580246913583 102.99305555555551)"/><use xlink:href="#C" transform="matrix(1,0,0,1,-3021.2386893673156,-4555.9240836192785) translate(114.98456790123457 102.99305555555551)"/><use xlink:href="#D" transform="matrix(1,0,0,1,-3021.2386893673156,-4555.9240836192785) translate(177.88580246913574 102.99305555555551)"/><path d="M-3426.24-4565.26a6 6 0 0 1 6-6h228a6 6 0 0 1 6 6v128.67a6 6 0 0 1-6 6h-228a6 6 0 0 1-6-6z" stroke="#000" stroke-opacity="0" stroke-width="3" fill="#4d9eff"/><g><use xlink:href="#E" transform="matrix(1,0,0,1,-3421.2386893673156,-4566.2574169526115) translate(28.666666666666686 20.09375)"/><use xlink:href="#F" transform="matrix(1,0,0,1,-3421.2386893673156,-4566.2574169526115) translate(108.3888888888889 20.09375)"/><use xlink:href="#G" transform="matrix(1,0,0,1,-3421.2386893673156,-4566.2574169526115) translate(51.22222222222223 44.09374999999999)"/><use xlink:href="#H" transform="matrix(1,0,0,1,-3421.2386893673156,-4566.2574169526115) translate(21.861111111111114 68.09374999999999)"/><use xlink:href="#I" transform="matrix(1,0,0,1,-3421.2386893673156,-4566.2574169526115) translate(137.08333333333331 68.09374999999999)"/><use xlink:href="#J" transform="matrix(1,0,0,1,-3421.2386893673156,-4566.2574169526115) translate(69.9845679012346 84.98263888888887)"/><use xlink:href="#K" transform="matrix(1,0,0,1,-3421.2386893673156,-4566.2574169526115) translate(119.92283950617283 84.98263888888887)"/><use xlink:href="#r" transform="matrix(1,0,0,1,-3421.2386893673156,-4566.2574169526115) translate(115 98.3159722222222)"/><use xlink:href="#L" transform="matrix(1,0,0,1,-3421.2386893673156,-4566.2574169526115) translate(19.166666666666714 113.4270833333333)"/><use xlink:href="#M" transform="matrix(1,0,0,1,-3421.2386893673156,-4566.2574169526115) translate(26.57407407407412 113.4270833333333)"/><use xlink:href="#N" transform="matrix(1,0,0,1,-3421.2386893673156,-4566.2574169526115) translate(82.05555555555557 113.4270833333333)"/><use xlink:href="#O" transform="matrix(1,0,0,1,-3421.2386893673156,-4566.2574169526115) translate(147.2037037037037 113.4270833333333)"/><use xlink:href="#P" transform="matrix(1,0,0,1,-3421.2386893673156,-4566.2574169526115) translate(41.777777777777814 129.4270833333333)"/><use xlink:href="#Q" transform="matrix(1,0,0,1,-3421.2386893673156,-4566.2574169526115) translate(98.70370370370372 129.4270833333333)"/><use xlink:href="#R" transform="matrix(1,0,0,1,-3421.2386893673156,-4566.2574169526115) translate(128.33333333333331 129.4270833333333)"/><use xlink:href="#S" transform="matrix(1,0,0,1,-3421.2386893673156,-4566.2574169526115) translate(143.14814814814815 129.4270833333333)"/></g><path d="M-3305.24-4589.76h-2v-9.13h2zm0-18.25h-2v-18.27h2zm0-27.4h-2v-.23h2zm0-54.76h-2v-18.25h2zm0-27.38h-2v-9.13h2z" stroke="#5e5e5e" stroke-width=".05" fill="#5e5e5e"/><path d="M-3305.24-4726.64h-2v-1.03h2z" fill="#5e5e5e"/><path d="M-3305.2-4726.62h-2.06v-1.07h2.05zm-2-1.02v.97h1.94v-.97z" stroke="#5e5e5e" stroke-width=".05" fill="#5e5e5e"/><path d="M-3306.24-4574.5l-4.63-14.26h9.27z" fill="#5e5e5e"/><path d="M-3306.24-4571.26l-6-18.5h12zm-3.26-16.5l3.26 10.03 3.26-10.03z" stroke="#5e5e5e" stroke-width=".05" fill="#5e5e5e"/><g><use xlink:href="#T" transform="matrix(1,0,0,1,-3376.368318996945,-4683.630992264805) translate(0.0049999999999954525 10.666666666666668)"/><use xlink:href="#U" transform="matrix(1,0,0,1,-3376.368318996945,-4683.630992264805) translate(41.22722222222222 10.666666666666668)"/><use xlink:href="#V" transform="matrix(1,0,0,1,-3376.368318996945,-4683.630992264805) translate(79.7087037037037 10.666666666666668)"/><use xlink:href="#W" transform="matrix(1,0,0,1,-3376.368318996945,-4683.630992264805) translate(107.04203703703703 10.666666666666668)"/><use xlink:href="#X" transform="matrix(1,0,0,1,-3376.368318996945,-4683.630992264805) translate(26.19018518518517 26.666666666666668)"/><use xlink:href="#Y" transform="matrix(1,0,0,1,-3376.368318996945,-4683.630992264805) translate(57.22722222222222 26.666666666666668)"/><use xlink:href="#Z" transform="matrix(1,0,0,1,-3376.368318996945,-4683.630992264805) translate(52.4124074074074 42.66666666666667)"/></g><path d="M-3158.37-4499.92h-9.37v-2h9.37zm12.78 0h-3.4v-2h3.4zm99.63 0h-18.74v-2h18.73zm18.73 0h-9.37v-2h9.36zm-46.83 0h-11.64v-2h11.63z" stroke="#5e5e5e" stroke-width=".05" fill="#5e5e5e"/><path d="M-3168.74-4496.3l-14.26-4.62 14.26-4.64z" fill="#5e5e5e"/><path d="M-3167.74-4494.9l-18.5-6.02 18.5-6.02zm-12.03-6.02l10.03 3.26v-6.52z" stroke="#5e5e5e" stroke-width=".05" fill="#5e5e5e"/><path d="M-3026.24-4499.92h-1.02v-2h1.02z" fill="#5e5e5e"/><path d="M-3026.2-4499.9h-1.1v-2.05h1.1zm-1.04-2v1.95h.98v-1.95z" stroke="#5e5e5e" stroke-width=".05" fill="#5e5e5e"/><g><use xlink:href="#aa" transform="matrix(1,0,0,1,-3145.5949043999954,-4516.9240836192785) translate(1.8383333333333312 10.666666666666668)"/><use xlink:href="#ab" transform="matrix(1,0,0,1,-3145.5949043999954,-4516.9240836192785) translate(0.004999999999999005 26.666666666666668)"/><use xlink:href="#ac" transform="matrix(1,0,0,1,-3145.5949043999954,-4516.9240836192785) translate(31.079074074074075 26.666666666666668)"/></g><path d="M-3366.24-5041.66a6 6 0 0 1 6-6h488a6 6 0 0 1 6 6v142a6 6 0 0 1-6 6h-488a6 6 0 0 1-6-6z" stroke="#000" stroke-opacity="0" stroke-width="3" fill="#fff" fill-opacity="0"/><g><use xlink:href="#ad" transform="matrix(1,0,0,1,-3361.2386893673156,-5042.6582144737) translate(245 45.5)"/><use xlink:href="#ae" transform="matrix(1,0,0,1,-3361.2386893673156,-5042.6582144737) translate(8.777777777777743 93.5)"/><use xlink:href="#af" transform="matrix(1,0,0,1,-3361.2386893673156,-5042.6582144737) translate(162 93.5)"/><use xlink:href="#ag" transform="matrix(1,0,0,1,-3361.2386893673156,-5042.6582144737) translate(321.44444444444446 93.5)"/><use xlink:href="#ah" transform="matrix(1,0,0,1,-3361.2386893673156,-5042.6582144737) translate(156.50617283950618 121.94444444444444)"/><use xlink:href="#ai" transform="matrix(1,0,0,1,-3361.2386893673156,-5042.6582144737) translate(202.26543209876544 121.94444444444444)"/><use xlink:href="#aj" transform="matrix(1,0,0,1,-3361.2386893673156,-5042.6582144737) translate(215.2283950617284 121.94444444444444)"/><use xlink:href="#ak" transform="matrix(1,0,0,1,-3361.2386893673156,-5042.6582144737) translate(236.83333333333334 121.94444444444444)"/><use xlink:href="#al" transform="matrix(1,0,0,1,-3361.2386893673156,-5042.6582144737) translate(262.75925925925924 121.94444444444444)"/><use xlink:href="#am" transform="matrix(1,0,0,1,-3361.2386893673156,-5042.6582144737) translate(286.9135802469136 121.94444444444444)"/></g><defs><path fill="#fff" d="M24-248c120-7 223 5 221 122C244-46 201 0 124 0H24v-248zM76-40c74 7 117-18 117-86 0-67-45-88-117-82v168" id="an"/><path fill="#fff" d="M133-34C117-15 103 5 69 4 32 3 11-16 11-54c-1-60 55-63 116-61 1-26-3-47-28-47-18 1-26 9-28 27l-52-2c7-38 36-58 82-57s74 22 75 68l1 82c-1 14 12 18 25 15v27c-30 8-71 5-69-32zm-48 3c29 0 43-24 42-57-32 0-66-3-65 30 0 17 8 27 23 27" id="ao"/><path fill="#fff" d="M137-138c1-29-70-34-71-4 15 46 118 7 119 86 1 83-164 76-172 9l43-7c4 19 20 25 44 25 33 8 57-30 24-41C81-84 22-81 20-136c-2-80 154-74 161-7" id="ap"/><path fill="#fff" d="M114-157C55-157 80-60 75 0H25v-261h50l-1 109c12-26 28-41 61-42 86-1 58 113 63 194h-50c-7-57 23-157-34-157" id="aq"/><path fill="#fff" d="M135-194c52 0 70 43 70 98 0 56-19 99-73 100-30 1-46-15-58-35L72 0H24l1-261h50v104c11-23 29-37 60-37zM114-30c31 0 40-27 40-66 0-37-7-63-39-63s-41 28-41 65c0 36 8 64 40 64" id="ar"/><path fill="#fff" d="M110-194c64 0 96 36 96 99 0 64-35 99-97 99-61 0-95-36-95-99 0-62 34-99 96-99zm-1 164c35 0 45-28 45-65 0-40-10-65-43-65-34 0-45 26-45 65 0 36 10 65 43 65" id="as"/><path fill="#fff" d="M135-150c-39-12-60 13-60 57V0H25l-1-190h47c2 13-1 29 3 40 6-28 27-53 61-41v41" id="at"/><path fill="#fff" d="M88-194c31-1 46 15 58 34l-1-101h50l1 261h-48c-2-10 0-23-3-31C134-8 116 4 84 4 32 4 16-41 15-95c0-56 19-97 73-99zm17 164c33 0 40-30 41-66 1-37-9-64-41-64s-38 30-39 65c0 43 13 65 39 65" id="au"/><g id="a"><use transform="matrix(0.055555555555555546,0,0,0.055555555555555546,0,0)" xlink:href="#an"/><use transform="matrix(0.055555555555555546,0,0,0.055555555555555546,14.388888888888886,0)" xlink:href="#ao"/><use transform="matrix(0.055555555555555546,0,0,0.055555555555555546,25.499999999999993,0)" xlink:href="#ap"/><use transform="matrix(0.055555555555555546,0,0,0.055555555555555546,36.6111111111111,0)" xlink:href="#aq"/><use transform="matrix(0.055555555555555546,0,0,0.055555555555555546,48.777777777777764,0)" xlink:href="#ar"/><use transform="matrix(0.055555555555555546,0,0,0.055555555555555546,60.944444444444436,0)" xlink:href="#as"/><use transform="matrix(0.055555555555555546,0,0,0.055555555555555546,73.11111111111109,0)" xlink:href="#ao"/><use transform="matrix(0.055555555555555546,0,0,0.055555555555555546,84.2222222222222,0)" xlink:href="#at"/><use transform="matrix(0.055555555555555546,0,0,0.055555555555555546,91.99999999999997,0)" xlink:href="#au"/></g><path fill="#fff" d="M147 0H94L2-248h55l64 206c17-72 42-137 63-206h54" id="av"/><path fill="#fff" d="M25-224v-37h50v37H25zM25 0v-190h50V0H25" id="aw"/><path fill="#fff" d="M115-3C79 11 28 4 28-45v-112H4v-33h27l15-45h31v45h36v33H77v99c-1 23 16 31 38 25v30" id="ax"/><g id="b"><use transform="matrix(0.055555555555555546,0,0,0.055555555555555546,0,0)" xlink:href="#av"/><use transform="matrix(0.055555555555555546,0,0,0.055555555555555546,12.944444444444441,0)" xlink:href="#aw"/><use transform="matrix(0.055555555555555546,0,0,0.055555555555555546,18.499999999999996,0)" xlink:href="#ap"/><use transform="matrix(0.055555555555555546,0,0,0.055555555555555546,29.611111111111107,0)" xlink:href="#aw"/><use transform="matrix(0.055555555555555546,0,0,0.055555555555555546,35.166666666666664,0)" xlink:href="#ax"/><use transform="matrix(0.055555555555555546,0,0,0.055555555555555546,41.77777777777777,0)" xlink:href="#as"/><use transform="matrix(0.055555555555555546,0,0,0.055555555555555546,53.944444444444436,0)" xlink:href="#at"/></g><path fill="#fff" d="M26 75v-336h71v23H56V52h41v23H26" id="ay"/><path fill="#fff" d="M30-248c87 1 191-15 191 75 0 78-77 80-158 76V0H30v-248zm33 125c57 0 124 11 124-50 0-59-68-47-124-48v98" id="az"/><path fill="#fff" d="M100-194c63 0 86 42 84 106H49c0 40 14 67 53 68 26 1 43-12 49-29l28 8c-11 28-37 45-77 45C44 4 14-33 15-96c1-61 26-98 85-98zm52 81c6-60-76-77-97-28-3 7-6 17-6 28h103" id="aA"/><path fill="#fff" d="M114-163C36-179 61-72 57 0H25l-1-190h30c1 12-1 29 2 39 6-27 23-49 58-41v29" id="aB"/><path fill="#fff" d="M135-143c-3-34-86-38-87 0 15 53 115 12 119 90S17 21 10-45l28-5c4 36 97 45 98 0-10-56-113-15-118-90-4-57 82-63 122-42 12 7 21 19 24 35" id="aC"/><path fill="#fff" d="M100-194c62-1 85 37 85 99 1 63-27 99-86 99S16-35 15-95c0-66 28-99 85-99zM99-20c44 1 53-31 53-75 0-43-8-75-51-75s-53 32-53 75 10 74 51 75" id="aD"/><path fill="#fff" d="M117-194c89-4 53 116 60 194h-32v-121c0-31-8-49-39-48C34-167 62-67 57 0H25l-1-190h30c1 10-1 24 2 32 11-22 29-35 61-36" id="aE"/><path fill="#fff" d="M3 75V52h41v-290H3v-23h71V75H3" id="aF"/><g id="c"><use transform="matrix(0.030864197530864182,0,0,0.030864197530864182,0,0)" xlink:href="#ay"/><use transform="matrix(0.030864197530864182,0,0,0.030864197530864182,3.0864197530864184,0)" xlink:href="#az"/><use transform="matrix(0.030864197530864182,0,0,0.030864197530864182,10.493827160493822,0)" xlink:href="#aA"/><use transform="matrix(0.030864197530864182,0,0,0.030864197530864182,16.666666666666657,0)" xlink:href="#aB"/><use transform="matrix(0.030864197530864182,0,0,0.030864197530864182,20.339506172839496,0)" xlink:href="#aC"/><use transform="matrix(0.030864197530864182,0,0,0.030864197530864182,25.89506172839505,0)" xlink:href="#aD"/><use transform="matrix(0.030864197530864182,0,0,0.030864197530864182,32.067901234567884,0)" xlink:href="#aE"/><use transform="matrix(0.030864197530864182,0,0,0.030864197530864182,38.24074074074072,0)" xlink:href="#aF"/></g><path fill="#fff" d="M205 0l-28-72H64L36 0H1l101-248h38L239 0h-34zm-38-99l-47-123c-12 45-31 82-46 123h93" id="aG"/><use transform="matrix(0.03703703703703702,0,0,0.03703703703703702,0,0)" xlink:href="#aG" id="e"/><path fill="#fff" d="M115-194c55 1 70 41 70 98S169 2 115 4C84 4 66-9 55-30l1 105H24l-1-265h31l2 30c10-21 28-34 59-34zm-8 174c40 0 45-34 45-75s-6-73-45-74c-42 0-51 32-51 76 0 43 10 73 51 73" id="aH"/><g id="f"><use transform="matrix(0.03703703703703702,0,0,0.03703703703703702,0,0)" xlink:href="#aH"/><use transform="matrix(0.03703703703703702,0,0,0.03703703703703702,7.407407407407404,0)" xlink:href="#aA"/><use transform="matrix(0.03703703703703702,0,0,0.03703703703703702,14.814814814814808,0)" xlink:href="#aB"/><use transform="matrix(0.03703703703703702,0,0,0.03703703703703702,19.222222222222214,0)" xlink:href="#aC"/><use transform="matrix(0.03703703703703702,0,0,0.03703703703703702,25.88888888888888,0)" xlink:href="#aD"/><use transform="matrix(0.03703703703703702,0,0,0.03703703703703702,33.29629629629628,0)" xlink:href="#aE"/></g><path fill="#fff" d="M206 0h-36l-40-164L89 0H53L-1-190h32L70-26l43-164h34l41 164 42-164h31" id="aI"/><path fill="#fff" d="M106-169C34-169 62-67 57 0H25v-261h32l-1 103c12-21 28-36 61-36 89 0 53 116 60 194h-32v-121c2-32-8-49-39-48" id="aJ"/><g id="g"><use transform="matrix(0.03703703703703702,0,0,0.03703703703703702,0,0)" xlink:href="#aI"/><use transform="matrix(0.03703703703703702,0,0,0.03703703703703702,9.592592592592588,0)" xlink:href="#aJ"/><use transform="matrix(0.03703703703703702,0,0,0.03703703703703702,16.999999999999993,0)" xlink:href="#aD"/></g><path fill="#fff" d="M24-231v-30h32v30H24zM24 0v-190h32V0H24" id="aK"/><g id="h"><use transform="matrix(0.03703703703703702,0,0,0.03703703703703702,0,0)" xlink:href="#aK"/><use transform="matrix(0.03703703703703702,0,0,0.03703703703703702,2.9259259259259247,0)" xlink:href="#aC"/></g><g id="i"><use transform="matrix(0.03703703703703702,0,0,0.03703703703703702,0,0)" xlink:href="#aD"/><use transform="matrix(0.03703703703703702,0,0,0.03703703703703702,7.407407407407404,0)" xlink:href="#aE"/></g><path fill="#fff" d="M59-47c-2 24 18 29 38 22v24C64 9 27 4 27-40v-127H5v-23h24l9-43h21v43h35v23H59v120" id="aL"/><g id="j"><use transform="matrix(0.03703703703703702,0,0,0.03703703703703702,0,0)" xlink:href="#aL"/><use transform="matrix(0.03703703703703702,0,0,0.03703703703703702,3.703703703703702,0)" xlink:href="#aJ"/><use transform="matrix(0.03703703703703702,0,0,0.03703703703703702,11.111111111111107,0)" xlink:href="#aA"/></g><path fill="#fff" d="M115-194c53 0 69 39 70 98 0 66-23 100-70 100C84 3 66-7 56-30L54 0H23l1-261h32v101c10-23 28-34 59-34zm-8 174c40 0 45-34 45-75 0-40-5-75-45-74-42 0-51 32-51 76 0 43 10 73 51 73" id="aM"/><path fill="#fff" d="M141-36C126-15 110 5 73 4 37 3 15-17 15-53c-1-64 63-63 125-63 3-35-9-54-41-54-24 1-41 7-42 31l-33-3c5-37 33-52 76-52 45 0 72 20 72 64v82c-1 20 7 32 28 27v20c-31 9-61-2-59-35zM48-53c0 20 12 33 32 33 41-3 63-29 60-74-43 2-92-5-92 41" id="aN"/><path fill="#fff" d="M177-190C167-65 218 103 67 71c-23-6-38-20-44-43l32-5c15 47 100 32 89-28v-30C133-14 115 1 83 1 29 1 15-40 15-95c0-56 16-97 71-98 29-1 48 16 59 35 1-10 0-23 2-32h30zM94-22c36 0 50-32 50-73 0-42-14-75-50-75-39 0-46 34-46 75s6 73 46 73" id="aO"/><path fill="#fff" d="M33 0v-38h34V0H33" id="aP"/><g id="k"><use transform="matrix(0.03703703703703702,0,0,0.03703703703703702,0,0)" xlink:href="#aI"/><use transform="matrix(0.03703703703703702,0,0,0.03703703703703702,9.592592592592588,0)" xlink:href="#aA"/><use transform="matrix(0.03703703703703702,0,0,0.03703703703703702,16.999999999999993,0)" xlink:href="#aM"/><use transform="matrix(0.03703703703703702,0,0,0.03703703703703702,24.407407407407398,0)" xlink:href="#aH"/><use transform="matrix(0.03703703703703702,0,0,0.03703703703703702,31.814814814814802,0)" xlink:href="#aN"/><use transform="matrix(0.03703703703703702,0,0,0.03703703703703702,39.22222222222221,0)" xlink:href="#aO"/><use transform="matrix(0.03703703703703702,0,0,0.03703703703703702,46.62962962962961,0)" xlink:href="#aA"/><use transform="matrix(0.03703703703703702,0,0,0.03703703703703702,54.03703703703702,0)" xlink:href="#aP"/></g><path fill="#333" d="M67-125c0 54 23 88 75 88 28 0 53-7 68-21v-34h-60v-39h108v91C232-14 192 4 140 4 58 4 20-42 15-125 8-236 126-280 215-234c19 10 29 26 37 47l-47 15c-11-23-29-39-63-39-53 1-75 33-75 86" id="aQ"/><path fill="#333" d="M185-48c-13 30-37 53-82 52C43 2 14-33 14-96s30-98 90-98c62 0 83 45 84 108H66c0 31 8 55 39 56 18 0 30-7 34-22zm-45-69c5-46-57-63-70-21-2 6-4 13-4 21h74" id="aR"/><path fill="#333" d="M110-194c64 0 96 36 96 99 0 64-35 99-97 99-61 0-95-36-95-99 0-62 34-99 96-99zm-1 164c35 0 45-28 45-65 0-40-10-65-43-65-34 0-45 26-45 65 0 36 10 65 43 65" id="aS"/><path fill="#333" d="M137-138c1-29-70-34-71-4 15 46 118 7 119 86 1 83-164 76-172 9l43-7c4 19 20 25 44 25 33 8 57-30 24-41C81-84 22-81 20-136c-2-80 154-74 161-7" id="aT"/><path fill="#333" d="M135-194c53 0 70 44 70 98 0 56-19 98-73 100-31 1-45-17-59-34 3 33 2 69 2 105H25l-1-265h48c2 10 0 23 3 31 11-24 29-35 60-35zM114-30c33 0 39-31 40-66 0-38-9-64-40-64-56 0-55 130 0 130" id="aU"/><path fill="#333" d="M133-34C117-15 103 5 69 4 32 3 11-16 11-54c-1-60 55-63 116-61 1-26-3-47-28-47-18 1-26 9-28 27l-52-2c7-38 36-58 82-57s74 22 75 68l1 82c-1 14 12 18 25 15v27c-30 8-71 5-69-32zm-48 3c29 0 43-24 42-57-32 0-66-3-65 30 0 17 8 27 23 27" id="aV"/><path fill="#333" d="M190-63c-7 42-38 67-86 67-59 0-84-38-90-98-12-110 154-137 174-36l-49 2c-2-19-15-32-35-32-30 0-35 28-38 64-6 74 65 87 74 30" id="aW"/><path fill="#333" d="M25-224v-37h50v37H25zM25 0v-190h50V0H25" id="aX"/><path fill="#333" d="M25 0v-261h50V0H25" id="aY"/><g id="l"><use transform="matrix(0.055555555555555546,0,0,0.055555555555555546,0,0)" xlink:href="#aQ"/><use transform="matrix(0.055555555555555546,0,0,0.055555555555555546,15.555555555555554,0)" xlink:href="#aR"/><use transform="matrix(0.055555555555555546,0,0,0.055555555555555546,26.666666666666664,0)" xlink:href="#aS"/><use transform="matrix(0.055555555555555546,0,0,0.055555555555555546,38.83333333333333,0)" xlink:href="#aT"/><use transform="matrix(0.055555555555555546,0,0,0.055555555555555546,49.944444444444436,0)" xlink:href="#aU"/><use transform="matrix(0.055555555555555546,0,0,0.055555555555555546,62.1111111111111,0)" xlink:href="#aV"/><use transform="matrix(0.055555555555555546,0,0,0.055555555555555546,73.22222222222221,0)" xlink:href="#aW"/><use transform="matrix(0.055555555555555546,0,0,0.055555555555555546,84.33333333333333,0)" xlink:href="#aX"/><use transform="matrix(0.055555555555555546,0,0,0.055555555555555546,89.88888888888889,0)" xlink:href="#aV"/><use transform="matrix(0.055555555555555546,0,0,0.055555555555555546,101,0)" xlink:href="#aY"/></g><path fill="#333" d="M88-194c31-1 46 15 58 34l-1-101h50l1 261h-48c-2-10 0-23-3-31C134-8 116 4 84 4 32 4 16-41 15-95c0-56 19-97 73-99zm17 164c33 0 40-30 41-66 1-37-9-64-41-64s-38 30-39 65c0 43 13 65 39 65" id="aZ"/><path fill="#333" d="M115-3C79 11 28 4 28-45v-112H4v-33h27l15-45h31v45h36v33H77v99c-1 23 16 31 38 25v30" id="ba"/><g id="m"><use transform="matrix(0.055555555555555546,0,0,0.055555555555555546,0,0)" xlink:href="#aZ"/><use transform="matrix(0.055555555555555546,0,0,0.055555555555555546,12.166666666666664,0)" xlink:href="#aV"/><use transform="matrix(0.055555555555555546,0,0,0.055555555555555546,23.27777777777777,0)" xlink:href="#ba"/><use transform="matrix(0.055555555555555546,0,0,0.055555555555555546,29.888888888888882,0)" xlink:href="#aV"/></g><path fill="#333" d="M135-150c-39-12-60 13-60 57V0H25l-1-190h47c2 13-1 29 3 40 6-28 27-53 61-41v41" id="bb"/><path fill="#333" d="M128 0H69L1-190h53L99-40l48-150h52" id="bc"/><g id="n"><use transform="matrix(0.055555555555555546,0,0,0.055555555555555546,0,0)" xlink:href="#aU"/><use transform="matrix(0.055555555555555546,0,0,0.055555555555555546,12.166666666666664,0)" xlink:href="#bb"/><use transform="matrix(0.055555555555555546,0,0,0.055555555555555546,19.944444444444443,0)" xlink:href="#aS"/><use transform="matrix(0.055555555555555546,0,0,0.055555555555555546,32.11111111111111,0)" xlink:href="#bc"/><use transform="matrix(0.055555555555555546,0,0,0.055555555555555546,43.222222222222214,0)" xlink:href="#aX"/><use transform="matrix(0.055555555555555546,0,0,0.055555555555555546,48.77777777777777,0)" xlink:href="#aZ"/><use transform="matrix(0.055555555555555546,0,0,0.055555555555555546,60.944444444444436,0)" xlink:href="#aR"/><use transform="matrix(0.055555555555555546,0,0,0.055555555555555546,72.05555555555554,0)" xlink:href="#bb"/></g><path fill="#333" d="M26 75v-336h71v23H56V52h41v23H26" id="bd"/><path fill="#333" d="M30 0v-248h187v28H63v79h144v27H63v87h162V0H30" id="be"/><path fill="#333" d="M141 0L90-78 38 0H4l68-98-65-92h35l48 74 47-74h35l-64 92 68 98h-35" id="bf"/><path fill="#333" d="M59-47c-2 24 18 29 38 22v24C64 9 27 4 27-40v-127H5v-23h24l9-43h21v43h35v23H59v120" id="bg"/><path fill="#333" d="M100-194c63 0 86 42 84 106H49c0 40 14 67 53 68 26 1 43-12 49-29l28 8c-11 28-37 45-77 45C44 4 14-33 15-96c1-61 26-98 85-98zm52 81c6-60-76-77-97-28-3 7-6 17-6 28h103" id="bh"/><path fill="#333" d="M114-163C36-179 61-72 57 0H25l-1-190h30c1 12-1 29 2 39 6-27 23-49 58-41v29" id="bi"/><path fill="#333" d="M117-194c89-4 53 116 60 194h-32v-121c0-31-8-49-39-48C34-167 62-67 57 0H25l-1-190h30c1 10-1 24 2 32 11-22 29-35 61-36" id="bj"/><path fill="#333" d="M141-36C126-15 110 5 73 4 37 3 15-17 15-53c-1-64 63-63 125-63 3-35-9-54-41-54-24 1-41 7-42 31l-33-3c5-37 33-52 76-52 45 0 72 20 72 64v82c-1 20 7 32 28 27v20c-31 9-61-2-59-35zM48-53c0 20 12 33 32 33 41-3 63-29 60-74-43 2-92-5-92 41" id="bk"/><path fill="#333" d="M24 0v-261h32V0H24" id="bl"/><g id="o"><use transform="matrix(0.030864197530864182,0,0,0.030864197530864182,0,0)" xlink:href="#bd"/><use transform="matrix(0.030864197530864182,0,0,0.030864197530864182,3.0864197530864184,0)" xlink:href="#be"/><use transform="matrix(0.030864197530864182,0,0,0.030864197530864182,10.493827160493822,0)" xlink:href="#bf"/><use transform="matrix(0.030864197530864182,0,0,0.030864197530864182,16.049382716049376,0)" xlink:href="#bg"/><use transform="matrix(0.030864197530864182,0,0,0.030864197530864182,19.135802469135793,0)" xlink:href="#bh"/><use transform="matrix(0.030864197530864182,0,0,0.030864197530864182,25.308641975308632,0)" xlink:href="#bi"/><use transform="matrix(0.030864197530864182,0,0,0.030864197530864182,28.98148148148147,0)" xlink:href="#bj"/><use transform="matrix(0.030864197530864182,0,0,0.030864197530864182,35.15432098765431,0)" xlink:href="#bk"/><use transform="matrix(0.030864197530864182,0,0,0.030864197530864182,41.327160493827144,0)" xlink:href="#bl"/></g><path fill="#333" d="M85-194c31 0 48 13 60 33l-1-100h32l1 261h-30c-2-10 0-23-3-31C134-8 116 4 85 4 32 4 16-35 15-94c0-66 23-100 70-100zm9 24c-40 0-46 34-46 75 0 40 6 74 45 74 42 0 51-32 51-76 0-42-9-74-50-73" id="bm"/><g id="p"><use transform="matrix(0.030864197530864182,0,0,0.030864197530864182,0,0)" xlink:href="#bm"/><use transform="matrix(0.030864197530864182,0,0,0.030864197530864182,6.172839506172837,0)" xlink:href="#bk"/><use transform="matrix(0.030864197530864182,0,0,0.030864197530864182,12.345679012345673,0)" xlink:href="#bg"/><use transform="matrix(0.030864197530864182,0,0,0.030864197530864182,15.432098765432091,0)" xlink:href="#bk"/></g><path fill="#333" d="M115-194c55 1 70 41 70 98S169 2 115 4C84 4 66-9 55-30l1 105H24l-1-265h31l2 30c10-21 28-34 59-34zm-8 174c40 0 45-34 45-75s-6-73-45-74c-42 0-51 32-51 76 0 43 10 73 51 73" id="bn"/><path fill="#333" d="M100-194c62-1 85 37 85 99 1 63-27 99-86 99S16-35 15-95c0-66 28-99 85-99zM99-20c44 1 53-31 53-75 0-43-8-75-51-75s-53 32-53 75 10 74 51 75" id="bo"/><path fill="#333" d="M135-143c-3-34-86-38-87 0 15 53 115 12 119 90S17 21 10-45l28-5c4 36 97 45 98 0-10-56-113-15-118-90-4-57 82-63 122-42 12 7 21 19 24 35" id="bp"/><path fill="#333" d="M24-231v-30h32v30H24zM24 0v-190h32V0H24" id="bq"/><path fill="#333" d="M179-190L93 31C79 59 56 82 12 73V49c39 6 53-20 64-50L1-190h34L92-34l54-156h33" id="br"/><path fill="#333" d="M3 75V52h41v-290H3v-23h71V75H3" id="bs"/><g id="q"><use transform="matrix(0.030864197530864182,0,0,0.030864197530864182,0,0)" xlink:href="#bi"/><use transform="matrix(0.030864197530864182,0,0,0.030864197530864182,3.6728395061728376,0)" xlink:href="#bh"/><use transform="matrix(0.030864197530864182,0,0,0.030864197530864182,9.845679012345673,0)" xlink:href="#bn"/><use transform="matrix(0.030864197530864182,0,0,0.030864197530864182,16.018518518518512,0)" xlink:href="#bo"/><use transform="matrix(0.030864197530864182,0,0,0.030864197530864182,22.191358024691347,0)" xlink:href="#bp"/><use transform="matrix(0.030864197530864182,0,0,0.030864197530864182,27.7469135802469,0)" xlink:href="#bq"/><use transform="matrix(0.030864197530864182,0,0,0.030864197530864182,30.18518518518517,0)" xlink:href="#bg"/><use transform="matrix(0.030864197530864182,0,0,0.030864197530864182,33.27160493827159,0)" xlink:href="#bo"/><use transform="matrix(0.030864197530864182,0,0,0.030864197530864182,39.44444444444442,0)" xlink:href="#bi"/><use transform="matrix(0.030864197530864182,0,0,0.030864197530864182,43.11728395061726,0)" xlink:href="#br"/><use transform="matrix(0.030864197530864182,0,0,0.030864197530864182,48.67283950617281,0)" xlink:href="#bs"/></g><path fill="#333" d="M127-220V0H93v-220H8v-28h204v28h-85" id="bt"/><path fill="#333" d="M106-169C34-169 62-67 57 0H25v-261h32l-1 103c12-21 28-36 61-36 89 0 53 116 60 194h-32v-121c2-32-8-49-39-48" id="bu"/><g id="t"><use transform="matrix(0.03703703703703702,0,0,0.03703703703703702,0,0)" xlink:href="#bt"/><use transform="matrix(0.03703703703703702,0,0,0.03703703703703702,8.111111111111107,0)" xlink:href="#bu"/><use transform="matrix(0.03703703703703702,0,0,0.03703703703703702,15.518518518518512,0)" xlink:href="#bh"/></g><path fill="#333" d="M108 0H70L1-190h34L89-25l56-165h34" id="bv"/><g id="u"><use transform="matrix(0.03703703703703702,0,0,0.03703703703703702,0,0)" xlink:href="#bn"/><use transform="matrix(0.03703703703703702,0,0,0.03703703703703702,7.407407407407404,0)" xlink:href="#bi"/><use transform="matrix(0.03703703703703702,0,0,0.03703703703703702,11.81481481481481,0)" xlink:href="#bo"/><use transform="matrix(0.03703703703703702,0,0,0.03703703703703702,19.222222222222214,0)" xlink:href="#bv"/><use transform="matrix(0.03703703703703702,0,0,0.03703703703703702,25.88888888888888,0)" xlink:href="#bq"/><use transform="matrix(0.03703703703703702,0,0,0.03703703703703702,28.814814814814802,0)" xlink:href="#bm"/><use transform="matrix(0.03703703703703702,0,0,0.03703703703703702,36.22222222222221,0)" xlink:href="#bh"/><use transform="matrix(0.03703703703703702,0,0,0.03703703703703702,43.62962962962961,0)" xlink:href="#bi"/></g><path fill="#333" d="M101-234c-31-9-42 10-38 44h38v23H63V0H32v-167H5v-23h27c-7-52 17-82 69-68v24" id="bw"/><g id="v"><use transform="matrix(0.03703703703703702,0,0,0.03703703703703702,0,0)" xlink:href="#bo"/><use transform="matrix(0.03703703703703702,0,0,0.03703703703703702,7.407407407407404,0)" xlink:href="#bw"/></g><g id="w"><use transform="matrix(0.03703703703703702,0,0,0.03703703703703702,0,0)" xlink:href="#bg"/><use transform="matrix(0.03703703703703702,0,0,0.03703703703703702,3.703703703703702,0)" xlink:href="#bu"/><use transform="matrix(0.03703703703703702,0,0,0.03703703703703702,11.111111111111107,0)" xlink:href="#bh"/></g><path fill="#333" d="M206 0h-36l-40-164L89 0H53L-1-190h32L70-26l43-164h34l41 164 42-164h31" id="bx"/><g id="x"><use transform="matrix(0.03703703703703702,0,0,0.03703703703703702,0,0)" xlink:href="#bi"/><use transform="matrix(0.03703703703703702,0,0,0.03703703703703702,4.407407407407406,0)" xlink:href="#bk"/><use transform="matrix(0.03703703703703702,0,0,0.03703703703703702,11.81481481481481,0)" xlink:href="#bx"/></g><g id="y"><use transform="matrix(0.03703703703703702,0,0,0.03703703703703702,0,0)" xlink:href="#bm"/><use transform="matrix(0.03703703703703702,0,0,0.03703703703703702,7.407407407407404,0)" xlink:href="#bk"/><use transform="matrix(0.03703703703703702,0,0,0.03703703703703702,14.814814814814808,0)" xlink:href="#bg"/><use transform="matrix(0.03703703703703702,0,0,0.03703703703703702,18.51851851851851,0)" xlink:href="#bk"/></g><path fill="#333" d="M87 75C49 33 22-17 22-94c0-76 28-126 65-167h31c-38 41-64 92-64 168S80 34 118 75H87" id="by"/><path fill="#333" d="M96-169c-40 0-48 33-48 73s9 75 48 75c24 0 41-14 43-38l32 2c-6 37-31 61-74 61-59 0-76-41-82-99-10-93 101-131 147-64 4 7 5 14 7 22l-32 3c-4-21-16-35-41-35" id="bz"/><path fill="#333" d="M84 4C-5 8 30-112 23-190h32v120c0 31 7 50 39 49 72-2 45-101 50-169h31l1 190h-30c-1-10 1-25-2-33-11 22-28 36-60 37" id="bA"/><g id="z"><use transform="matrix(0.030864197530864175,0,0,0.030864197530864175,0,0)" xlink:href="#by"/><use transform="matrix(0.030864197530864175,0,0,0.030864197530864175,3.6728395061728367,0)" xlink:href="#bz"/><use transform="matrix(0.030864197530864175,0,0,0.030864197530864175,9.228395061728389,0)" xlink:href="#bA"/><use transform="matrix(0.030864197530864175,0,0,0.030864197530864175,15.401234567901223,0)" xlink:href="#bi"/><use transform="matrix(0.030864197530864175,0,0,0.030864197530864175,19.074074074074062,0)" xlink:href="#bi"/><use transform="matrix(0.030864197530864175,0,0,0.030864197530864175,22.746913580246897,0)" xlink:href="#bh"/><use transform="matrix(0.030864197530864175,0,0,0.030864197530864175,28.919753086419732,0)" xlink:href="#bj"/><use transform="matrix(0.030864197530864175,0,0,0.030864197530864175,35.09259259259257,0)" xlink:href="#bg"/><use transform="matrix(0.030864197530864175,0,0,0.030864197530864175,38.179012345678984,0)" xlink:href="#bl"/><use transform="matrix(0.030864197530864175,0,0,0.030864197530864175,40.61728395061726,0)" xlink:href="#br"/></g><g id="A"><use transform="matrix(0.030864197530864175,0,0,0.030864197530864175,0,0)" xlink:href="#bg"/><use transform="matrix(0.030864197530864175,0,0,0.030864197530864175,3.0864197530864175,0)" xlink:href="#bu"/><use transform="matrix(0.030864197530864175,0,0,0.030864197530864175,9.259259259259252,0)" xlink:href="#bh"/></g><g id="B"><use transform="matrix(0.030864197530864175,0,0,0.030864197530864175,0,0)" xlink:href="#be"/><use transform="matrix(0.030864197530864175,0,0,0.030864197530864175,7.407407407407402,0)" xlink:href="#bk"/><use transform="matrix(0.030864197530864175,0,0,0.030864197530864175,13.580246913580236,0)" xlink:href="#bi"/><use transform="matrix(0.030864197530864175,0,0,0.030864197530864175,17.253086419753075,0)" xlink:href="#bg"/><use transform="matrix(0.030864197530864175,0,0,0.030864197530864175,20.339506172839492,0)" xlink:href="#bu"/></g><path fill="#333" d="M140-251c81 0 123 46 123 126C263-46 219 4 140 4 59 4 17-45 17-125s42-126 123-126zm0 227c63 0 89-41 89-101s-29-99-89-99c-61 0-89 39-89 99S79-25 140-24" id="bB"/><path fill="#333" d="M115-194c53 0 69 39 70 98 0 66-23 100-70 100C84 3 66-7 56-30L54 0H23l1-261h32v101c10-23 28-34 59-34zm-8 174c40 0 45-34 45-75 0-40-5-75-45-74-42 0-51 32-51 76 0 43 10 73 51 73" id="bC"/><g id="C"><use transform="matrix(0.030864197530864175,0,0,0.030864197530864175,0,0)" xlink:href="#bB"/><use transform="matrix(0.030864197530864175,0,0,0.030864197530864175,8.64197530864197,0)" xlink:href="#bC"/><use transform="matrix(0.030864197530864175,0,0,0.030864197530864175,14.814814814814804,0)" xlink:href="#bp"/><use transform="matrix(0.030864197530864175,0,0,0.030864197530864175,20.370370370370356,0)" xlink:href="#bh"/><use transform="matrix(0.030864197530864175,0,0,0.030864197530864175,26.54320987654319,0)" xlink:href="#bi"/><use transform="matrix(0.030864197530864175,0,0,0.030864197530864175,30.21604938271603,0)" xlink:href="#bv"/><use transform="matrix(0.030864197530864175,0,0,0.030864197530864175,35.77160493827158,0)" xlink:href="#bk"/><use transform="matrix(0.030864197530864175,0,0,0.030864197530864175,41.944444444444414,0)" xlink:href="#bg"/><use transform="matrix(0.030864197530864175,0,0,0.030864197530864175,45.03086419753083,0)" xlink:href="#bq"/><use transform="matrix(0.030864197530864175,0,0,0.030864197530864175,47.469135802469104,0)" xlink:href="#bo"/><use transform="matrix(0.030864197530864175,0,0,0.030864197530864175,53.64197530864194,0)" xlink:href="#bj"/></g><path fill="#333" d="M143 4C61 4 22-44 18-125c-5-107 100-154 193-111 17 8 29 25 37 43l-32 9c-13-25-37-40-76-40-61 0-88 39-88 99 0 61 29 100 91 101 35 0 62-11 79-27v-45h-74v-28h105v86C228-13 192 4 143 4" id="bD"/><path fill="#333" d="M33-261c38 41 65 92 65 168S71 34 33 75H2C39 34 66-17 66-93S39-220 2-261h31" id="bE"/><g id="D"><use transform="matrix(0.030864197530864175,0,0,0.030864197530864175,0,0)" xlink:href="#bD"/><use transform="matrix(0.030864197530864175,0,0,0.030864197530864175,8.64197530864197,0)" xlink:href="#bi"/><use transform="matrix(0.030864197530864175,0,0,0.030864197530864175,12.314814814814806,0)" xlink:href="#bo"/><use transform="matrix(0.030864197530864175,0,0,0.030864197530864175,18.48765432098764,0)" xlink:href="#bA"/><use transform="matrix(0.030864197530864175,0,0,0.030864197530864175,24.660493827160476,0)" xlink:href="#bn"/><use transform="matrix(0.030864197530864175,0,0,0.030864197530864175,30.83333333333331,0)" xlink:href="#bE"/></g><path fill="#333" d="M67-125c0 53 21 87 73 88 37 1 54-22 65-47l45 17C233-25 199 4 140 4 58 4 20-42 15-125 8-235 124-281 211-232c18 10 29 29 36 50l-46 12c-8-25-30-41-62-41-52 0-71 34-72 86" id="bF"/><path fill="#333" d="M135-194c87-1 58 113 63 194h-50c-7-57 23-157-34-157-59 0-34 97-39 157H25l-1-190h47c2 12-1 28 3 38 12-26 28-41 61-42" id="bG"/><path fill="#333" d="M121-226c-27-7-43 5-38 36h38v33H83V0H34v-157H6v-33h28c-9-59 32-81 87-68v32" id="bH"/><g id="E"><use transform="matrix(0.055555555555555546,0,0,0.055555555555555546,0,0)" xlink:href="#bF"/><use transform="matrix(0.055555555555555546,0,0,0.055555555555555546,14.388888888888886,0)" xlink:href="#aS"/><use transform="matrix(0.055555555555555546,0,0,0.055555555555555546,26.55555555555555,0)" xlink:href="#bG"/><use transform="matrix(0.055555555555555546,0,0,0.055555555555555546,38.722222222222214,0)" xlink:href="#bH"/><use transform="matrix(0.055555555555555546,0,0,0.055555555555555546,45.33333333333332,0)" xlink:href="#aY"/><use transform="matrix(0.055555555555555546,0,0,0.055555555555555546,50.88888888888888,0)" xlink:href="#aX"/><use transform="matrix(0.055555555555555546,0,0,0.055555555555555546,56.444444444444436,0)" xlink:href="#aW"/><use transform="matrix(0.055555555555555546,0,0,0.055555555555555546,67.55555555555554,0)" xlink:href="#ba"/></g><path fill="#333" d="M175 0L67-191c6 58 2 128 3 191H24v-248h59L193-55c-6-58-2-129-3-193h46V0h-61" id="bI"/><path fill="#333" d="M195-6C206 82 75 100 31 46c-4-6-6-13-8-21l49-6c3 16 16 24 34 25 40 0 42-37 40-79-11 22-30 35-61 35-53 0-70-43-70-97 0-56 18-96 73-97 30 0 46 14 59 34l2-30h47zm-90-29c32 0 41-27 41-63 0-35-9-62-40-62-32 0-39 29-40 63 0 36 9 62 39 62" id="bJ"/><path fill="#333" d="M114-157C55-157 80-60 75 0H25v-261h50l-1 109c12-26 28-41 61-42 86-1 58 113 63 194h-50c-7-57 23-157-34-157" id="bK"/><g id="F"><use transform="matrix(0.055555555555555546,0,0,0.055555555555555546,0,0)" xlink:href="#bI"/><use transform="matrix(0.055555555555555546,0,0,0.055555555555555546,14.388888888888886,0)" xlink:href="#aX"/><use transform="matrix(0.055555555555555546,0,0,0.055555555555555546,19.94444444444444,0)" xlink:href="#bJ"/><use transform="matrix(0.055555555555555546,0,0,0.055555555555555546,32.1111111111111,0)" xlink:href="#bK"/><use transform="matrix(0.055555555555555546,0,0,0.055555555555555546,44.277777777777764,0)" xlink:href="#ba"/><use transform="matrix(0.055555555555555546,0,0,0.055555555555555546,50.88888888888887,0)" xlink:href="#aY"/><use transform="matrix(0.055555555555555546,0,0,0.055555555555555546,56.44444444444443,0)" xlink:href="#aX"/><use transform="matrix(0.055555555555555546,0,0,0.055555555555555546,61.999999999999986,0)" xlink:href="#bJ"/><use transform="matrix(0.055555555555555546,0,0,0.055555555555555546,74.16666666666666,0)" xlink:href="#bK"/><use transform="matrix(0.055555555555555546,0,0,0.055555555555555546,86.33333333333331,0)" xlink:href="#ba"/></g><g id="G"><use transform="matrix(0.055555555555555546,0,0,0.055555555555555546,0,0)" xlink:href="#aQ"/><use transform="matrix(0.055555555555555546,0,0,0.055555555555555546,15.555555555555554,0)" xlink:href="#aR"/><use transform="matrix(0.055555555555555546,0,0,0.055555555555555546,26.666666666666664,0)" xlink:href="#aS"/><use transform="matrix(0.055555555555555546,0,0,0.055555555555555546,38.83333333333333,0)" xlink:href="#bJ"/><use transform="matrix(0.055555555555555546,0,0,0.055555555555555546,50.99999999999999,0)" xlink:href="#bb"/><use transform="matrix(0.055555555555555546,0,0,0.055555555555555546,58.777777777777764,0)" xlink:href="#aV"/><use transform="matrix(0.055555555555555546,0,0,0.055555555555555546,69.88888888888889,0)" xlink:href="#aU"/><use transform="matrix(0.055555555555555546,0,0,0.055555555555555546,82.05555555555554,0)" xlink:href="#bK"/><use transform="matrix(0.055555555555555546,0,0,0.055555555555555546,94.2222222222222,0)" xlink:href="#aX"/><use transform="matrix(0.055555555555555546,0,0,0.055555555555555546,99.77777777777776,0)" xlink:href="#aW"/><use transform="matrix(0.055555555555555546,0,0,0.055555555555555546,110.88888888888887,0)" xlink:href="#aV"/><use transform="matrix(0.055555555555555546,0,0,0.055555555555555546,121.99999999999997,0)" xlink:href="#aY"/></g><path fill="#333" d="M24 0v-248h52V0H24" id="bL"/><path fill="#333" d="M220-157c-53 9-28 100-34 157h-49v-107c1-27-5-49-29-50C55-147 81-57 75 0H25l-1-190h47c2 12-1 28 3 38 10-53 101-56 108 0 13-22 24-43 59-42 82 1 51 116 57 194h-49v-107c-1-25-5-48-29-50" id="bM"/><g id="H"><use transform="matrix(0.055555555555555546,0,0,0.055555555555555546,0,0)" xlink:href="#bL"/><use transform="matrix(0.055555555555555546,0,0,0.055555555555555546,5.5555555555555545,0)" xlink:href="#bG"/><use transform="matrix(0.055555555555555546,0,0,0.055555555555555546,17.722222222222218,0)" xlink:href="#bH"/><use transform="matrix(0.055555555555555546,0,0,0.055555555555555546,24.33333333333333,0)" xlink:href="#aS"/><use transform="matrix(0.055555555555555546,0,0,0.055555555555555546,36.49999999999999,0)" xlink:href="#bb"/><use transform="matrix(0.055555555555555546,0,0,0.055555555555555546,44.27777777777777,0)" xlink:href="#bM"/><use transform="matrix(0.055555555555555546,0,0,0.055555555555555546,62.05555555555554,0)" xlink:href="#aV"/><use transform="matrix(0.055555555555555546,0,0,0.055555555555555546,73.16666666666666,0)" xlink:href="#ba"/><use transform="matrix(0.055555555555555546,0,0,0.055555555555555546,79.77777777777777,0)" xlink:href="#aX"/><use transform="matrix(0.055555555555555546,0,0,0.055555555555555546,85.33333333333333,0)" xlink:href="#aS"/><use transform="matrix(0.055555555555555546,0,0,0.055555555555555546,97.5,0)" xlink:href="#bG"/></g><path fill="#333" d="M169-182c-1-43-94-46-97-3 18 66 151 10 154 114 3 95-165 93-204 36-6-8-10-19-12-30l50-8c3 46 112 56 116 5-17-69-150-10-154-114-4-87 153-88 188-35 5 8 8 18 10 28" id="bN"/><path fill="#333" d="M123 10C108 53 80 86 19 72V37c35 8 53-11 59-39L3-190h52l48 148c12-52 28-100 44-148h51" id="bO"/><g id="I"><use transform="matrix(0.055555555555555546,0,0,0.055555555555555546,0,0)" xlink:href="#bN"/><use transform="matrix(0.055555555555555546,0,0,0.055555555555555546,13.33333333333333,0)" xlink:href="#bO"/><use transform="matrix(0.055555555555555546,0,0,0.055555555555555546,24.44444444444444,0)" xlink:href="#aT"/><use transform="matrix(0.055555555555555546,0,0,0.055555555555555546,35.55555555555555,0)" xlink:href="#ba"/><use transform="matrix(0.055555555555555546,0,0,0.055555555555555546,42.16666666666666,0)" xlink:href="#aR"/><use transform="matrix(0.055555555555555546,0,0,0.055555555555555546,53.277777777777764,0)" xlink:href="#bM"/></g><path fill="#333" d="M185-189c-5-48-123-54-124 2 14 75 158 14 163 119 3 78-121 87-175 55-17-10-28-26-33-46l33-7c5 56 141 63 141-1 0-78-155-14-162-118-5-82 145-84 179-34 5 7 8 16 11 25" id="bP"/><g id="J"><use transform="matrix(0.030864197530864182,0,0,0.030864197530864182,0,0)" xlink:href="#bd"/><use transform="matrix(0.030864197530864182,0,0,0.030864197530864182,3.0864197530864184,0)" xlink:href="#bP"/><use transform="matrix(0.030864197530864182,0,0,0.030864197530864182,10.493827160493822,0)" xlink:href="#bo"/><use transform="matrix(0.030864197530864182,0,0,0.030864197530864182,16.666666666666657,0)" xlink:href="#bw"/><use transform="matrix(0.030864197530864182,0,0,0.030864197530864182,19.753086419753075,0)" xlink:href="#bg"/><use transform="matrix(0.030864197530864182,0,0,0.030864197530864182,22.839506172839492,0)" xlink:href="#bx"/><use transform="matrix(0.030864197530864182,0,0,0.030864197530864182,30.833333333333314,0)" xlink:href="#bk"/><use transform="matrix(0.030864197530864182,0,0,0.030864197530864182,37.00617283950615,0)" xlink:href="#bi"/><use transform="matrix(0.030864197530864182,0,0,0.030864197530864182,40.679012345678984,0)" xlink:href="#bh"/></g><path fill="#333" d="M210-169c-67 3-38 105-44 169h-31v-121c0-29-5-50-35-48C34-165 62-65 56 0H25l-1-190h30c1 10-1 24 2 32 10-44 99-50 107 0 11-21 27-35 58-36 85-2 47 119 55 194h-31v-121c0-29-5-49-35-48" id="bQ"/><g id="K"><use transform="matrix(0.030864197530864182,0,0,0.030864197530864182,0,0)" xlink:href="#bP"/><use transform="matrix(0.030864197530864182,0,0,0.030864197530864182,7.407407407407404,0)" xlink:href="#br"/><use transform="matrix(0.030864197530864182,0,0,0.030864197530864182,12.962962962962957,0)" xlink:href="#bp"/><use transform="matrix(0.030864197530864182,0,0,0.030864197530864182,18.51851851851851,0)" xlink:href="#bg"/><use transform="matrix(0.030864197530864182,0,0,0.030864197530864182,21.604938271604926,0)" xlink:href="#bh"/><use transform="matrix(0.030864197530864182,0,0,0.030864197530864182,27.777777777777764,0)" xlink:href="#bQ"/><use transform="matrix(0.030864197530864182,0,0,0.030864197530864182,37.006172839506156,0)" xlink:href="#bs"/></g><path fill="#333" d="M30-248c87 1 191-15 191 75 0 78-77 80-158 76V0H30v-248zm33 125c57 0 124 11 124-50 0-59-68-47-124-48v98" id="bR"/><g id="M"><use transform="matrix(0.03703703703703702,0,0,0.03703703703703702,0,0)" xlink:href="#bR"/><use transform="matrix(0.03703703703703702,0,0,0.03703703703703702,8.888888888888886,0)" xlink:href="#bi"/><use transform="matrix(0.03703703703703702,0,0,0.03703703703703702,13.29629629629629,0)" xlink:href="#bo"/><use transform="matrix(0.03703703703703702,0,0,0.03703703703703702,20.703703703703695,0)" xlink:href="#bv"/><use transform="matrix(0.03703703703703702,0,0,0.03703703703703702,27.37037037037036,0)" xlink:href="#bq"/><use transform="matrix(0.03703703703703702,0,0,0.03703703703703702,30.296296296296283,0)" xlink:href="#bm"/><use transform="matrix(0.03703703703703702,0,0,0.03703703703703702,37.70370370370369,0)" xlink:href="#bh"/><use transform="matrix(0.03703703703703702,0,0,0.03703703703703702,45.11111111111109,0)" xlink:href="#bp"/></g><g id="N"><use transform="matrix(0.03703703703703702,0,0,0.03703703703703702,0,0)" xlink:href="#bn"/><use transform="matrix(0.03703703703703702,0,0,0.03703703703703702,7.407407407407404,0)" xlink:href="#bi"/><use transform="matrix(0.03703703703703702,0,0,0.03703703703703702,11.81481481481481,0)" xlink:href="#bo"/><use transform="matrix(0.03703703703703702,0,0,0.03703703703703702,19.222222222222214,0)" xlink:href="#bz"/><use transform="matrix(0.03703703703703702,0,0,0.03703703703703702,25.88888888888888,0)" xlink:href="#bh"/><use transform="matrix(0.03703703703703702,0,0,0.03703703703703702,33.29629629629628,0)" xlink:href="#bp"/><use transform="matrix(0.03703703703703702,0,0,0.03703703703703702,39.96296296296295,0)" xlink:href="#bp"/><use transform="matrix(0.03703703703703702,0,0,0.03703703703703702,46.62962962962961,0)" xlink:href="#bh"/><use transform="matrix(0.03703703703703702,0,0,0.03703703703703702,54.03703703703702,0)" xlink:href="#bm"/></g><path fill="#333" d="M177-190C167-65 218 103 67 71c-23-6-38-20-44-43l32-5c15 47 100 32 89-28v-30C133-14 115 1 83 1 29 1 15-40 15-95c0-56 16-97 71-98 29-1 48 16 59 35 1-10 0-23 2-32h30zM94-22c36 0 50-32 50-73 0-42-14-75-50-75-39 0-46 34-46 75s6 73 46 73" id="bS"/><g id="O"><use transform="matrix(0.03703703703703702,0,0,0.03703703703703702,0,0)" xlink:href="#bS"/><use transform="matrix(0.03703703703703702,0,0,0.03703703703703702,7.407407407407404,0)" xlink:href="#bh"/><use transform="matrix(0.03703703703703702,0,0,0.03703703703703702,14.814814814814808,0)" xlink:href="#bo"/><use transform="matrix(0.03703703703703702,0,0,0.03703703703703702,22.222222222222214,0)" xlink:href="#bp"/><use transform="matrix(0.03703703703703702,0,0,0.03703703703703702,28.888888888888875,0)" xlink:href="#bn"/><use transform="matrix(0.03703703703703702,0,0,0.03703703703703702,36.296296296296276,0)" xlink:href="#bk"/><use transform="matrix(0.03703703703703702,0,0,0.03703703703703702,43.70370370370369,0)" xlink:href="#bz"/><use transform="matrix(0.03703703703703702,0,0,0.03703703703703702,50.370370370370345,0)" xlink:href="#bq"/><use transform="matrix(0.03703703703703702,0,0,0.03703703703703702,53.296296296296276,0)" xlink:href="#bk"/><use transform="matrix(0.03703703703703702,0,0,0.03703703703703702,60.70370370370368,0)" xlink:href="#bl"/></g><g id="P"><use transform="matrix(0.03703703703703702,0,0,0.03703703703703702,0,0)" xlink:href="#bj"/><use transform="matrix(0.03703703703703702,0,0,0.03703703703703702,7.407407407407404,0)" xlink:href="#bq"/><use transform="matrix(0.03703703703703702,0,0,0.03703703703703702,10.333333333333329,0)" xlink:href="#bS"/><use transform="matrix(0.03703703703703702,0,0,0.03703703703703702,17.740740740740733,0)" xlink:href="#bu"/><use transform="matrix(0.03703703703703702,0,0,0.03703703703703702,25.148148148148138,0)" xlink:href="#bg"/><use transform="matrix(0.03703703703703702,0,0,0.03703703703703702,28.85185185185184,0)" xlink:href="#bl"/><use transform="matrix(0.03703703703703702,0,0,0.03703703703703702,31.777777777777764,0)" xlink:href="#bq"/><use transform="matrix(0.03703703703703702,0,0,0.03703703703703702,34.70370370370369,0)" xlink:href="#bS"/><use transform="matrix(0.03703703703703702,0,0,0.03703703703703702,42.11111111111109,0)" xlink:href="#bu"/><use transform="matrix(0.03703703703703702,0,0,0.03703703703703702,49.5185185185185,0)" xlink:href="#bg"/></g><g id="Q"><use transform="matrix(0.03703703703703702,0,0,0.03703703703703702,0,0)" xlink:href="#bm"/><use transform="matrix(0.03703703703703702,0,0,0.03703703703703702,7.407407407407404,0)" xlink:href="#bk"/><use transform="matrix(0.03703703703703702,0,0,0.03703703703703702,14.814814814814808,0)" xlink:href="#bg"/><use transform="matrix(0.03703703703703702,0,0,0.03703703703703702,18.51851851851851,0)" xlink:href="#bk"/></g><g id="R"><use transform="matrix(0.03703703703703702,0,0,0.03703703703703702,0,0)" xlink:href="#bg"/><use transform="matrix(0.03703703703703702,0,0,0.03703703703703702,3.703703703703702,0)" xlink:href="#bo"/></g><path fill="#333" d="M33 0v-38h34V0H33" id="bT"/><g id="S"><use transform="matrix(0.03703703703703702,0,0,0.03703703703703702,0,0)" xlink:href="#bv"/><use transform="matrix(0.03703703703703702,0,0,0.03703703703703702,6.666666666666663,0)" xlink:href="#bq"/><use transform="matrix(0.03703703703703702,0,0,0.03703703703703702,9.592592592592588,0)" xlink:href="#bp"/><use transform="matrix(0.03703703703703702,0,0,0.03703703703703702,16.259259259259252,0)" xlink:href="#bq"/><use transform="matrix(0.03703703703703702,0,0,0.03703703703703702,19.185185185185176,0)" xlink:href="#bg"/><use transform="matrix(0.03703703703703702,0,0,0.03703703703703702,22.88888888888888,0)" xlink:href="#bo"/><use transform="matrix(0.03703703703703702,0,0,0.03703703703703702,30.296296296296283,0)" xlink:href="#bi"/><use transform="matrix(0.03703703703703702,0,0,0.03703703703703702,34.70370370370369,0)" xlink:href="#bp"/><use transform="matrix(0.03703703703703702,0,0,0.03703703703703702,41.37037037037035,0)" xlink:href="#bT"/></g><path fill="#333" d="M147 0H94L2-248h55l64 206c17-72 42-137 63-206h54" id="bU"/><path fill="#333" d="M231 0h-52l-39-155L100 0H48L-1-190h46L77-45c9-52 24-97 36-145h53l37 145 32-145h46" id="bV"/><g id="T"><use transform="matrix(0.03703703703703704,0,0,0.03703703703703704,0,0)" xlink:href="#bU"/><use transform="matrix(0.03703703703703704,0,0,0.03703703703703704,8.62962962962963,0)" xlink:href="#aX"/><use transform="matrix(0.03703703703703704,0,0,0.03703703703703704,12.333333333333336,0)" xlink:href="#aR"/><use transform="matrix(0.03703703703703704,0,0,0.03703703703703704,19.74074074074074,0)" xlink:href="#bV"/><use transform="matrix(0.03703703703703704,0,0,0.03703703703703704,30.111111111111114,0)" xlink:href="#aT"/></g><g id="U"><use transform="matrix(0.03703703703703704,0,0,0.03703703703703704,0,0)" xlink:href="#bM"/><use transform="matrix(0.03703703703703704,0,0,0.03703703703703704,11.851851851851853,0)" xlink:href="#aV"/><use transform="matrix(0.03703703703703704,0,0,0.03703703703703704,19.259259259259256,0)" xlink:href="#aU"/><use transform="matrix(0.03703703703703704,0,0,0.03703703703703704,27.370370370370374,0)" xlink:href="#aT"/></g><g id="V"><use transform="matrix(0.03703703703703704,0,0,0.03703703703703704,0,0)" xlink:href="#aV"/><use transform="matrix(0.03703703703703704,0,0,0.03703703703703704,7.407407407407408,0)" xlink:href="#bG"/><use transform="matrix(0.03703703703703704,0,0,0.03703703703703704,15.51851851851852,0)" xlink:href="#aZ"/></g><g id="W"><use transform="matrix(0.03703703703703704,0,0,0.03703703703703704,0,0)" xlink:href="#aS"/><use transform="matrix(0.03703703703703704,0,0,0.03703703703703704,8.111111111111112,0)" xlink:href="#ba"/><use transform="matrix(0.03703703703703704,0,0,0.03703703703703704,12.51851851851852,0)" xlink:href="#bK"/><use transform="matrix(0.03703703703703704,0,0,0.03703703703703704,20.629629629629633,0)" xlink:href="#aR"/><use transform="matrix(0.03703703703703704,0,0,0.03703703703703704,28.03703703703704,0)" xlink:href="#bb"/></g><g id="X"><use transform="matrix(0.03703703703703704,0,0,0.03703703703703704,0,0)" xlink:href="#aZ"/><use transform="matrix(0.03703703703703704,0,0,0.03703703703703704,8.111111111111112,0)" xlink:href="#aV"/><use transform="matrix(0.03703703703703704,0,0,0.03703703703703704,15.51851851851852,0)" xlink:href="#ba"/><use transform="matrix(0.03703703703703704,0,0,0.03703703703703704,19.925925925925934,0)" xlink:href="#aV"/></g><path fill="#333" d="M85 4C-2 5 27-109 22-190h50c7 57-23 150 33 157 60-5 35-97 40-157h50l1 190h-47c-2-12 1-28-3-38-12 25-28 42-61 42" id="bW"/><g id="Y"><use transform="matrix(0.03703703703703704,0,0,0.03703703703703704,0,0)" xlink:href="#aU"/><use transform="matrix(0.03703703703703704,0,0,0.03703703703703704,8.111111111111112,0)" xlink:href="#bb"/><use transform="matrix(0.03703703703703704,0,0,0.03703703703703704,13.296296296296298,0)" xlink:href="#aS"/><use transform="matrix(0.03703703703703704,0,0,0.03703703703703704,21.407407407407412,0)" xlink:href="#aZ"/><use transform="matrix(0.03703703703703704,0,0,0.03703703703703704,29.518518518518526,0)" xlink:href="#bW"/><use transform="matrix(0.03703703703703704,0,0,0.03703703703703704,37.62962962962964,0)" xlink:href="#aW"/><use transform="matrix(0.03703703703703704,0,0,0.03703703703703704,45.03703703703705,0)" xlink:href="#ba"/><use transform="matrix(0.03703703703703704,0,0,0.03703703703703704,49.44444444444446,0)" xlink:href="#aT"/></g><g id="Z"><use transform="matrix(0.03703703703703704,0,0,0.03703703703703704,0,0)" xlink:href="#bW"/><use transform="matrix(0.03703703703703704,0,0,0.03703703703703704,8.111111111111112,0)" xlink:href="#aT"/><use transform="matrix(0.03703703703703704,0,0,0.03703703703703704,15.51851851851852,0)" xlink:href="#aX"/><use transform="matrix(0.03703703703703704,0,0,0.03703703703703704,19.222222222222225,0)" xlink:href="#bG"/><use transform="matrix(0.03703703703703704,0,0,0.03703703703703704,27.333333333333336,0)" xlink:href="#bJ"/></g><path fill="#333" d="M24-248c93 1 206-16 204 79-1 75-69 88-152 82V0H24v-248zm52 121c47 0 100 7 100-41 0-47-54-39-100-39v80" id="bX"/><g id="aa"><use transform="matrix(0.03703703703703704,0,0,0.03703703703703704,0,0)" xlink:href="#bX"/><use transform="matrix(0.03703703703703704,0,0,0.03703703703703704,8.88888888888889,0)" xlink:href="#bb"/><use transform="matrix(0.03703703703703704,0,0,0.03703703703703704,14.074074074074076,0)" xlink:href="#aS"/><use transform="matrix(0.03703703703703704,0,0,0.03703703703703704,22.185185185185194,0)" xlink:href="#bc"/><use transform="matrix(0.03703703703703704,0,0,0.03703703703703704,29.592592592592602,0)" xlink:href="#aX"/><use transform="matrix(0.03703703703703704,0,0,0.03703703703703704,33.296296296296305,0)" xlink:href="#aZ"/><use transform="matrix(0.03703703703703704,0,0,0.03703703703703704,41.40740740740742,0)" xlink:href="#aR"/><use transform="matrix(0.03703703703703704,0,0,0.03703703703703704,48.814814814814824,0)" xlink:href="#aT"/></g><path fill="#333" d="M240-174c0 40-23 61-54 70L253 0h-59l-57-94H76V0H24v-248c93 4 217-23 216 74zM76-134c48-2 112 12 112-38 0-48-66-32-112-35v73" id="bY"/><g id="ab"><use transform="matrix(0.03703703703703704,0,0,0.03703703703703704,0,0)" xlink:href="#bY"/><use transform="matrix(0.03703703703703704,0,0,0.03703703703703704,9.592592592592593,0)" xlink:href="#aV"/><use transform="matrix(0.03703703703703704,0,0,0.03703703703703704,17,0)" xlink:href="#bV"/></g><path fill="#333" d="M24-248c120-7 223 5 221 122C244-46 201 0 124 0H24v-248zM76-40c74 7 117-18 117-86 0-67-45-88-117-82v168" id="bZ"/><g id="ac"><use transform="matrix(0.03703703703703704,0,0,0.03703703703703704,0,0)" xlink:href="#bZ"/><use transform="matrix(0.03703703703703704,0,0,0.03703703703703704,9.592592592592593,0)" xlink:href="#aV"/><use transform="matrix(0.03703703703703704,0,0,0.03703703703703704,17,0)" xlink:href="#ba"/><use transform="matrix(0.03703703703703704,0,0,0.03703703703703704,21.407407407407412,0)" xlink:href="#aV"/></g><g id="ae"><use transform="matrix(0.1111111111111111,0,0,0.1111111111111111,0,0)" xlink:href="#bN"/><use transform="matrix(0.1111111111111111,0,0,0.1111111111111111,26.666666666666664,0)" xlink:href="#bO"/><use transform="matrix(0.1111111111111111,0,0,0.1111111111111111,48.888888888888886,0)" xlink:href="#aT"/><use transform="matrix(0.1111111111111111,0,0,0.1111111111111111,71.11111111111111,0)" xlink:href="#ba"/><use transform="matrix(0.1111111111111111,0,0,0.1111111111111111,84.33333333333334,0)" xlink:href="#aR"/><use transform="matrix(0.1111111111111111,0,0,0.1111111111111111,106.55555555555557,0)" xlink:href="#bM"/></g><path fill="#333" d="M144 0l-44-69L55 0H2l70-98-66-92h53l41 62 40-62h54l-67 91 71 99h-54" id="ca"/><g id="af"><use transform="matrix(0.1111111111111111,0,0,0.1111111111111111,0,0)" xlink:href="#bF"/><use transform="matrix(0.1111111111111111,0,0,0.1111111111111111,28.777777777777775,0)" xlink:href="#aS"/><use transform="matrix(0.1111111111111111,0,0,0.1111111111111111,53.11111111111111,0)" xlink:href="#bG"/><use transform="matrix(0.1111111111111111,0,0,0.1111111111111111,77.44444444444444,0)" xlink:href="#ba"/><use transform="matrix(0.1111111111111111,0,0,0.1111111111111111,90.66666666666666,0)" xlink:href="#aR"/><use transform="matrix(0.1111111111111111,0,0,0.1111111111111111,112.88888888888889,0)" xlink:href="#ca"/><use transform="matrix(0.1111111111111111,0,0,0.1111111111111111,135.11111111111111,0)" xlink:href="#ba"/></g><g id="ag"><use transform="matrix(0.1111111111111111,0,0,0.1111111111111111,0,0)" xlink:href="#bZ"/><use transform="matrix(0.1111111111111111,0,0,0.1111111111111111,28.777777777777775,0)" xlink:href="#aX"/><use transform="matrix(0.1111111111111111,0,0,0.1111111111111111,39.888888888888886,0)" xlink:href="#aV"/><use transform="matrix(0.1111111111111111,0,0,0.1111111111111111,62.11111111111111,0)" xlink:href="#bJ"/><use transform="matrix(0.1111111111111111,0,0,0.1111111111111111,86.44444444444444,0)" xlink:href="#bb"/><use transform="matrix(0.1111111111111111,0,0,0.1111111111111111,102,0)" xlink:href="#aV"/><use transform="matrix(0.1111111111111111,0,0,0.1111111111111111,124.22222222222224,0)" xlink:href="#bM"/></g><path fill="#333" d="M30 0v-248h33v221h125V0H30" id="cb"/><g id="ah"><use transform="matrix(0.043209876543209874,0,0,0.043209876543209874,0,0)" xlink:href="#bd"/><use transform="matrix(0.043209876543209874,0,0,0.043209876543209874,4.320987654320987,0)" xlink:href="#cb"/><use transform="matrix(0.043209876543209874,0,0,0.043209876543209874,12.962962962962962,0)" xlink:href="#bh"/><use transform="matrix(0.043209876543209874,0,0,0.043209876543209874,21.604938271604937,0)" xlink:href="#bv"/><use transform="matrix(0.043209876543209874,0,0,0.043209876543209874,29.382716049382715,0)" xlink:href="#bh"/><use transform="matrix(0.043209876543209874,0,0,0.043209876543209874,38.02469135802469,0)" xlink:href="#bl"/></g><path fill="#333" d="M27 0v-27h64v-190l-56 39v-29l58-41h29v221h61V0H27" id="cc"/><use transform="matrix(0.043209876543209874,0,0,0.043209876543209874,0,0)" xlink:href="#cc" id="ai"/><g id="aj"><use transform="matrix(0.043209876543209874,0,0,0.043209876543209874,0,0)" xlink:href="#bo"/><use transform="matrix(0.043209876543209874,0,0,0.043209876543209874,8.641975308641975,0)" xlink:href="#bj"/></g><g id="ak"><use transform="matrix(0.043209876543209874,0,0,0.043209876543209874,0,0)" xlink:href="#bg"/><use transform="matrix(0.043209876543209874,0,0,0.043209876543209874,4.320987654320987,0)" xlink:href="#bu"/><use transform="matrix(0.043209876543209874,0,0,0.043209876543209874,12.962962962962962,0)" xlink:href="#bh"/></g><path fill="#333" d="M212-179c-10-28-35-45-73-45-59 0-87 40-87 99 0 60 29 101 89 101 43 0 62-24 78-52l27 14C228-24 195 4 139 4 59 4 22-46 18-125c-6-104 99-153 187-111 19 9 31 26 39 46" id="cd"/><path fill="#333" d="M155-56V0h-30v-56H8v-25l114-167h33v167h35v25h-35zm-30-156c-27 46-58 90-88 131h88v-131" id="ce"/><g id="al"><use transform="matrix(0.043209876543209874,0,0,0.043209876543209874,0,0)" xlink:href="#cd"/><use transform="matrix(0.043209876543209874,0,0,0.043209876543209874,11.191358024691358,0)" xlink:href="#ce"/></g><path fill="#333" d="M240 0l2-218c-23 76-54 145-80 218h-23L58-218 59 0H30v-248h44l77 211c21-75 51-140 76-211h43V0h-30" id="cf"/><g id="am"><use transform="matrix(0.043209876543209874,0,0,0.043209876543209874,0,0)" xlink:href="#cf"/><use transform="matrix(0.043209876543209874,0,0,0.043209876543209874,12.919753086419753,0)" xlink:href="#bo"/><use transform="matrix(0.043209876543209874,0,0,0.043209876543209874,21.561728395061728,0)" xlink:href="#bm"/><use transform="matrix(0.043209876543209874,0,0,0.043209876543209874,30.203703703703702,0)" xlink:href="#bh"/><use transform="matrix(0.043209876543209874,0,0,0.043209876543209874,38.84567901234568,0)" xlink:href="#bl"/><use transform="matrix(0.043209876543209874,0,0,0.043209876543209874,42.25925925925926,0)" xlink:href="#bs"/></g></defs></g></svg>
